@startuml diagrama

package std{
    class Sombrero
    class Blusa
    class Sweater
}

class Usuario
class Serie{
    - Foco : foquitos[10]
    + EncenderTodo()
    + EncenderCantidad(Numero)
    + ApagarTodo()
    + ApagarCantidad(Numero)
    + RecorrerDerecha()
    + RecorrerIzquierda()
    + AlternarEncendido()
    + Imprimir()
}
class Foco{
    - EstadoFoco : estado
    + Encender()
    + Apagar()
    + Imprimir()
    + Alternar()
}
enum EstadoFoco{
    Encendido
    Apagado
}

Foco *-- EstadoFoco
Foco --o Usuario
Serie "1" *-- "10" Foco
Usuario o-- Serie

@enduml